<svg xmlns="http://www.w3.org/2000/svg" version="1.1" xmlns:xlink="http://www.w3.org/1999/xlink" xmlns:svgjs="http://svgjs.dev/svgjs" width="1500" height="1682" viewBox="0 0 1500 1682"><g transform="matrix(1,0,0,1,-2.336338785046678,0)"><svg viewBox="0 0 321 360" data-background-color="#ffffff" preserveAspectRatio="xMidYMid meet" height="1682" width="1500" xmlns="http://www.w3.org/2000/svg" xmlns:xlink="http://www.w3.org/1999/xlink"><g id="tight-bounds" transform="matrix(1,0,0,1,0.5000234999999975,0)"><svg viewBox="0 0 320 360" height="360" width="320"><g><svg></svg></g><g><svg viewBox="0 0 320 360" height="360" width="320"><g><path transform="translate(-74.99272,-51.79039) scale(4.65793,4.65793)" d="M20.6 59.9l0.8 1-0.4-1.3c-0.1-0.6-0.8 0.1-0.4 0.3M21.5 59.3c0.3 0.5 0.6 1 0.6 1.5 0 0.7 0.6 1 1.1 1.2-0.7-0.8-1.1-3-1.7-2.7M59.9 16.9c1.7 0 3.3-0.2 5.1 0.2 4.4 1.1 8.1 3.3 10.6 6.4l7 11.2c0.3 2.8 0.9 5.9 0.8 9.3 0.7 0 0.6-1 1.4-1.2-0.8 2-1.2 4.5-1.4 7.4-0.5-1.6 0-4 0.1-5.3-0.7 1.1-1.1 0.3-1.1-0.2 0.1-0.8-0.3-0.7-0.6-1-1.1-1-1.8-2.1-2.6-3.8 0.5-1.3 0.6-3.2-1-4.2-0.5-0.3-1.1-0.8-1.4-1.6-0.4-1.1-1.1-2.4-0.9-4.1 0.1-0.5-1.5 1.1-2.4 0.4-3.9-2.7-7.8-5.8-12.5-8.4-2.5 0-4.3-0.9-5.2-2-0.8-1-0.2-2.3 1-2.4 0.7 0 1.5-0.2 2.1 0.2 0.1-0.4 0.5-0.9 1-0.9M50 14.6l0.2 0.1c1 0.2 1.5 1.6 2.6 1.1 0 0.7 0.1 1.4-0.1 1.9-0.3 0.8-1.2 0.8-1.9 0.8-6.7-0.4-10.6 2.4-14.7 4.8-1.1 0.7-2.3 1.2-3.2 2.1-4.3 4-9 7.7-10.1 15.1l-0.9 8.2c-0.1 0.9-1.1 1.8-0.9 2.9l0.7 4.9c-0.7-0.7-1.1 0.2-0.9 0.6 0.1 0.3 0.5 1.3 1.1 0.4 0.8 1.5 1.6 4.4 2.7 5.7 3.4 4 7.8 7.6 11.4 11.2 0.9-0.2 1.6-0.2 1.8-0.8 0.3 0.6-0.3 1.2-0.8 1.3 1.6 1 3.4 1.9 5.8 2.1 3.1 0.2 6 0.7 8.7 1.4 1.4-0.4 2.8-0.6 4.3-0.7 0.5 0 0.8-0.8 1.4-1l0.1-1c0.6 0.9 0.5-0.3 0.1-0.9 0.7 0.6 0.9 1.1 1.2 1.5 0-0.3 0.8-1.4 0.8-0.1l0.2-1.3c0.3-0.2 0.4 1.1 0.7 0.2 0.3-0.9 0.9-0.2 1.5-0.5-0.2 0.4-0.1 1.2 0.6 0.7l0.8-0.7c0.5 1.2 1.3 0.7 1.7 0.5 4.4-2.8 8.8-6.1 13-9.4l-0.1 1.3 0.5-1.6c0.5 0.5 0.9 0.1 1.1-0.2 0.6-1 1.4-2 2.7-2.9-1.6 4.3-3.5 7.7-5.9 10.5l-1 1.2c0 0.7-0.2 1.6-1 1.7-0.4 0.1-1.2-0.2-1.8 0.4-0.3 0.4 0.7 1.2-0.1 0.6-0.7-0.5-1.4 0-2.2 0.2-0.6 0.2 0.4 0.8 0.6 1.2 0.2 0.4 0.4 0.8 0.3 1.3l-1.1-1.2c-1.3 0.7-2.1 2-3.2 3-0.5 0.4-0.3 1.1-0.3 1.7-0.7 0-1.5-0.2-1.9 0.2-0.3 0.4-0.2 1-0.2 1.6-1-0.1-1.1-1.6-2-1.3-0.9 0.2-1.9 0.3-2.7 0.8 0.6 1.2-1 0.5-0.8 0.7-1.5-0.9-2.8-1.6-4.4-1-3.4-1.1-7.6-0.6-10.7-0.2 0-0.5 0.1-1-0.1-1.1-0.2 0.5-0.8 0.3-0.7 0.3-1.9-1.3-3.8-2.1-5.8-3.2-1.8 0.2-3.5-0.7-4-1.2-1.4-1.3-3-0.6-4.3-0.9-2.8-0.7-3.8-3.6-4.1-5.6-0.2-1-1-1.4-1.3-1.3-1.3-4.2-3.3-8-4.9-11.9-0.4-1-0.3-2-0.3-3.1 0.5 0.2 1 0.1 0.9-0.6-0.5-3.3-1.7-5.8-3-8.2 0.7-3.4 0.8-7.4 2.4-10.4 1.4-2.7 4-4.1 5.8-6.4 0.6-0.8 0.6-1.9 1.2-2.6 2-2 4-4.1 6.2-5.9 1-0.8 2.2 0 3.7-0.3 0.5-1.8 2.5-3.4 4.4-2.9 0.8 0.2 2.4-1.9 2.9-2.1 0.8-0.3 0.4 0.8 0.4 1.5 1.9-1.5 4.5-2.3 6.9-3.2" fill="#000000" fill-rule="nonzero" stroke="none" stroke-width="1" stroke-linecap="butt" stroke-linejoin="miter" stroke-miterlimit="10" stroke-dasharray="" stroke-dashoffset="0" font-family="none" font-weight="none" font-size="none" text-anchor="none" style="mix-blend-mode: normal" data-fill-palette-color="tertiary"></path></g><g transform="matrix(1,0,0,1,64,119.42761995878018)"><svg viewBox="0 0 192 121.14476008243963" height="121.14476008243963" width="192"><g><svg viewBox="0 0 192 121.14476008243963" height="121.14476008243963" width="192"><g><svg viewBox="0 0 192 121.14476008243963" height="121.14476008243963" width="192"><g transform="matrix(1,0,0,1,0,72.2266612068027)"><svg viewBox="0 0 192 48.91809887563693" height="48.91809887563693" width="192"><g id="textblocktransform"><svg viewBox="0 0 192 48.91809887563693" height="48.91809887563693" width="192" id="textblock"><g><svg viewBox="0 0 192 31.672984297802063" height="31.672984297802063" width="192"><g transform="matrix(1,0,0,1,0,0)"><svg width="192" viewBox="3.6 -35 273.792222220995 45.170694455521996" height="31.672984297802063" data-palette-color="#0994cf"><path d="M20.7-9.5Q20.75-5 18.3-2.5 15.85 0 11.75 0L11.75 0 4.1 0Q3.6 0 3.6-0.5L3.6-0.5 3.6-34.5Q3.6-35 4.1-35L4.1-35 11.3-35Q15.6-35 18.05-32.63 20.5-30.25 20.5-25.85L20.5-25.85Q20.5-20.25 16.35-18.2L16.35-18.2Q16.25-18.15 16.25-18.1 16.25-18.05 16.3-18L16.3-18Q20.7-15.45 20.7-9.5L20.7-9.5ZM7.35-31.9Q7.15-31.9 7.15-31.7L7.15-31.7 7.15-19.65Q7.15-19.45 7.35-19.45L7.35-19.45 11.3-19.45Q14-19.45 15.5-21.05 17-22.65 17-25.55L17-25.55Q17-28.55 15.5-30.23 14-31.9 11.3-31.9L11.3-31.9 7.35-31.9ZM11.5-3.15Q14.15-3.15 15.65-4.93 17.15-6.7 17.15-9.9L17.15-9.9Q17.15-13.15 15.65-14.95 14.15-16.75 11.5-16.75L11.5-16.75 7.35-16.75Q7.15-16.75 7.15-16.55L7.15-16.55 7.15-3.35Q7.15-3.15 7.35-3.15L7.35-3.15 11.5-3.15ZM37.05-24.8Q37.05-25.3 37.55-25.3L37.55-25.3 40.1-25.3Q40.6-25.3 40.6-24.8L40.6-24.8 40.6-0.5Q40.6 0 40.1 0L40.1 0 37.55 0Q37.05 0 37.05-0.5L37.05-0.5 37.05-2.2Q37.05-2.35 36.97-2.35 36.9-2.35 36.8-2.25L36.8-2.25Q35.25 0.35 31.8 0.35L31.8 0.35Q28.8 0.35 27.02-1.48 25.25-3.3 25.25-7L25.25-7 25.25-24.8Q25.25-25.3 25.75-25.3L25.75-25.3 28.3-25.3Q28.8-25.3 28.8-24.8L28.8-24.8 28.8-7.8Q28.8-5.3 29.82-4.03 30.85-2.75 32.8-2.75L32.8-2.75Q34.8-2.75 35.92-4.2 37.05-5.65 37.05-8.15L37.05-8.15 37.05-24.8ZM58.2-34.5Q58.2-35 58.7-35L58.7-35 61.25-35Q61.75-35 61.75-34.5L61.75-34.5 61.75-0.5Q61.75 0 61.25 0L61.25 0 58.7 0Q58.2 0 58.2-0.5L58.2-0.5 58.2-1.6Q58.2-1.7 58.12-1.75 58.05-1.8 57.95-1.7L57.95-1.7Q56.05 0.4 53.15 0.4L53.15 0.4Q49.95 0.4 48.05-1.73 46.15-3.85 46.15-7.25L46.15-7.25 46.15-18.05Q46.15-21.55 48.05-23.63 49.95-25.7 53.15-25.7L53.15-25.7Q56.1-25.7 57.95-23.55L57.95-23.55Q58.05-23.45 58.12-23.5 58.2-23.55 58.2-23.65L58.2-23.65 58.2-34.5ZM54-2.7Q55.85-2.7 57.02-4.03 58.2-5.35 58.2-7.45L58.2-7.45 58.2-17.8Q58.2-19.95 57.02-21.28 55.85-22.6 54-22.6L54-22.6Q52.1-22.6 50.87-21.28 49.65-19.95 49.65-17.8L49.65-17.8 49.65-7.45Q49.65-5.35 50.87-4.03 52.1-2.7 54-2.7L54-2.7ZM79.34-24.8Q79.34-25.3 79.84-25.3L79.84-25.3 82.39-25.3Q82.89-25.3 82.89-24.8L82.89-24.8 82.89-0.5Q82.89 4.85 80.42 7.63 77.94 10.4 72.14 10.15L72.14 10.15Q71.64 10.1 71.64 9.6L71.64 9.6 71.64 7.45Q71.64 6.95 72.14 6.95L72.14 6.95Q76.14 7.05 77.74 5.13 79.34 3.2 79.34-0.8L79.34-0.8 79.34-2.3Q79.34-2.4 79.27-2.45 79.19-2.5 79.09-2.4L79.09-2.4Q78.24-1.15 76.92-0.5 75.59 0.15 74.09 0.15L74.09 0.15Q70.94 0.15 69.12-1.95 67.29-4.05 67.29-7.5L67.29-7.5 67.29-18.05Q67.29-21.55 69.12-23.63 70.94-25.7 74.09-25.7L74.09-25.7Q75.59-25.7 76.92-25.08 78.24-24.45 79.09-23.2L79.09-23.2Q79.19-23.05 79.27-23.08 79.34-23.1 79.34-23.25L79.34-23.25 79.34-24.8ZM75.14-2.95Q76.99-2.95 78.17-4.28 79.34-5.6 79.34-7.7L79.34-7.7 79.34-17.8Q79.34-19.95 78.17-21.28 76.99-22.6 75.14-22.6L75.14-22.6Q73.24-22.6 72.04-21.28 70.84-19.95 70.84-17.8L70.84-17.8 70.84-7.7Q70.84-5.6 72.04-4.28 73.24-2.95 75.14-2.95L75.14-2.95ZM103.59-11.8Q103.59-11.3 103.09-11.3L103.09-11.3 91.69-11.3Q91.49-11.3 91.49-11.1L91.49-11.1 91.49-7.45Q91.49-5.35 92.67-4.03 93.84-2.7 95.74-2.7L95.74-2.7Q97.34-2.7 98.47-3.68 99.59-4.65 99.94-6.2L99.94-6.2Q100.09-6.65 100.49-6.65L100.49-6.65 102.99-6.55Q103.19-6.55 103.34-6.4 103.49-6.25 103.44-6L103.44-6Q103.04-3.05 101.02-1.33 98.99 0.4 95.74 0.4L95.74 0.4Q92.19 0.4 90.07-1.7 87.94-3.8 87.94-7.25L87.94-7.25 87.94-18.05Q87.94-21.45 90.07-23.58 92.19-25.7 95.74-25.7L95.74-25.7Q99.34-25.7 101.47-23.58 103.59-21.45 103.59-18.05L103.59-18.05 103.59-11.8ZM95.74-22.6Q93.84-22.6 92.67-21.28 91.49-19.95 91.49-17.8L91.49-17.8 91.49-14.45Q91.49-14.25 91.69-14.25L91.69-14.25 99.89-14.25Q100.09-14.25 100.09-14.45L100.09-14.45 100.09-17.8Q100.09-19.95 98.89-21.28 97.69-22.6 95.74-22.6L95.74-22.6ZM117.54-23.15Q117.54-22.65 117.04-22.65L117.04-22.65 113.24-22.65Q113.04-22.65 113.04-22.45L113.04-22.45 113.04-7.15Q113.04-4.85 113.84-3.98 114.64-3.1 116.29-3.15L116.29-3.15 116.79-3.15Q117.29-3.15 117.29-2.65L117.29-2.65 117.29-0.5Q117.29 0 116.79 0L116.79 0 115.54 0Q112.59 0 111.06-1.28 109.54-2.55 109.54-6.1L109.54-6.1 109.54-22.45Q109.54-22.65 109.34-22.65L109.34-22.65 107.39-22.65Q106.89-22.65 106.89-23.15L106.89-23.15 106.89-24.8Q106.89-25.3 107.39-25.3L107.39-25.3 109.34-25.3Q109.54-25.3 109.54-25.5L109.54-25.5 109.54-31.1Q109.54-31.6 110.04-31.6L110.04-31.6 112.54-31.6Q113.04-31.6 113.04-31.1L113.04-31.1 113.04-25.5Q113.04-25.3 113.24-25.3L113.24-25.3 117.04-25.3Q117.54-25.3 117.54-24.8L117.54-24.8 117.54-23.15ZM149.63-9.5Q149.68-5 147.23-2.5 144.78 0 140.68 0L140.68 0 133.03 0Q132.53 0 132.53-0.5L132.53-0.5 132.53-34.5Q132.53-35 133.03-35L133.03-35 140.23-35Q144.53-35 146.98-32.63 149.43-30.25 149.43-25.85L149.43-25.85Q149.43-20.25 145.28-18.2L145.28-18.2Q145.18-18.15 145.18-18.1 145.18-18.05 145.23-18L145.23-18Q149.63-15.45 149.63-9.5L149.63-9.5ZM136.28-31.9Q136.08-31.9 136.08-31.7L136.08-31.7 136.08-19.65Q136.08-19.45 136.28-19.45L136.28-19.45 140.23-19.45Q142.93-19.45 144.43-21.05 145.93-22.65 145.93-25.55L145.93-25.55Q145.93-28.55 144.43-30.23 142.93-31.9 140.23-31.9L140.23-31.9 136.28-31.9ZM140.43-3.15Q143.08-3.15 144.58-4.93 146.08-6.7 146.08-9.9L146.08-9.9Q146.08-13.15 144.58-14.95 143.08-16.75 140.43-16.75L140.43-16.75 136.28-16.75Q136.08-16.75 136.08-16.55L136.08-16.55 136.08-3.35Q136.08-3.15 136.28-3.15L136.28-3.15 140.43-3.15ZM161.83-25.7Q165.33-25.7 167.43-23.43 169.53-21.15 169.53-17.35L169.53-17.35 169.53-0.5Q169.53 0 169.03 0L169.03 0 166.48 0Q165.98 0 165.98-0.5L165.98-0.5 165.98-2Q165.98-2.1 165.91-2.13 165.83-2.15 165.73-2.05L165.73-2.05Q163.88 0.4 160.18 0.4L160.18 0.4Q157.43 0.4 155.41-1.18 153.38-2.75 153.38-6.75L153.38-6.75Q153.38-11 155.83-12.98 158.28-14.95 162.28-14.95L162.28-14.95 165.78-14.95Q165.98-14.95 165.98-15.15L165.98-15.15 165.98-17.1Q165.98-19.6 164.83-21.1 163.68-22.6 161.73-22.6L161.73-22.6Q160.23-22.6 159.16-21.6 158.08-20.6 157.88-19.05L157.88-19.05Q157.88-18.55 157.38-18.55L157.38-18.55 154.58-18.6Q154.33-18.6 154.21-18.75 154.08-18.9 154.13-19.1L154.13-19.1Q154.38-22.05 156.53-23.88 158.68-25.7 161.83-25.7L161.83-25.7ZM160.93-2.7Q162.98-2.7 164.48-4.03 165.98-5.35 165.98-7.7L165.98-7.7 165.98-11.9Q165.98-12.1 165.78-12.1L165.78-12.1 162.23-12.1Q159.83-12.1 158.43-10.83 157.03-9.55 157.03-7.05L157.03-7.05Q157.03-4.85 158.11-3.78 159.18-2.7 160.93-2.7L160.93-2.7ZM175.28 0Q174.78 0 174.78-0.5L174.78-0.5 174.78-34.5Q174.78-35 175.28-35L175.28-35 177.83-35Q178.33-35 178.33-34.5L178.33-34.5 178.33-0.5Q178.33 0 177.83 0L177.83 0 175.28 0ZM191.53-25.7Q195.03-25.7 197.13-23.43 199.23-21.15 199.23-17.35L199.23-17.35 199.23-0.5Q199.23 0 198.73 0L198.73 0 196.18 0Q195.68 0 195.68-0.5L195.68-0.5 195.68-2Q195.68-2.1 195.6-2.13 195.53-2.15 195.43-2.05L195.43-2.05Q193.58 0.4 189.88 0.4L189.88 0.4Q187.13 0.4 185.1-1.18 183.08-2.75 183.08-6.75L183.08-6.75Q183.08-11 185.53-12.98 187.98-14.95 191.98-14.95L191.98-14.95 195.48-14.95Q195.68-14.95 195.68-15.15L195.68-15.15 195.68-17.1Q195.68-19.6 194.53-21.1 193.38-22.6 191.43-22.6L191.43-22.6Q189.93-22.6 188.85-21.6 187.78-20.6 187.58-19.05L187.58-19.05Q187.58-18.55 187.08-18.55L187.08-18.55 184.28-18.6Q184.03-18.6 183.9-18.75 183.78-18.9 183.83-19.1L183.83-19.1Q184.08-22.05 186.23-23.88 188.38-25.7 191.53-25.7L191.53-25.7ZM190.63-2.7Q192.68-2.7 194.18-4.03 195.68-5.35 195.68-7.7L195.68-7.7 195.68-11.9Q195.68-12.1 195.48-12.1L195.48-12.1 191.93-12.1Q189.53-12.1 188.13-10.83 186.73-9.55 186.73-7.05L186.73-7.05Q186.73-4.85 187.8-3.78 188.88-2.7 190.63-2.7L190.63-2.7ZM213.77-25.65Q216.82-25.65 218.5-23.55 220.17-21.45 220.17-17.7L220.17-17.7 220.17-0.5Q220.17 0 219.67 0L219.67 0 217.12 0Q216.62 0 216.62-0.5L216.62-0.5 216.62-17.4Q216.62-19.85 215.55-21.2 214.47-22.55 212.57-22.55L212.57-22.55Q210.57-22.55 209.45-21.1 208.32-19.65 208.32-17.15L208.32-17.15 208.32-0.5Q208.32 0 207.82 0L207.82 0 205.27 0Q204.77 0 204.77-0.5L204.77-0.5 204.77-24.8Q204.77-25.3 205.27-25.3L205.27-25.3 207.82-25.3Q208.32-25.3 208.32-24.8L208.32-24.8 208.32-23.2Q208.32-23.1 208.42-23.05 208.52-23 208.57-23.15L208.57-23.15Q209.47-24.4 210.85-25.03 212.22-25.65 213.77-25.65L213.77-25.65ZM233.22 0.4Q229.67 0.4 227.55-1.7 225.42-3.8 225.42-7.25L225.42-7.25 225.42-18.05Q225.42-21.45 227.57-23.58 229.72-25.7 233.22-25.7L233.22-25.7Q235.57-25.7 237.37-24.75 239.17-23.8 240.15-22.23 241.12-20.65 241.12-18.75L241.12-18.75 241.12-18.25Q241.12-17.75 240.62-17.75L240.62-17.75 238.07-17.65Q237.57-17.65 237.57-18.15L237.57-18.15 237.57-18.5Q237.57-20.15 236.35-21.38 235.12-22.6 233.22-22.6L233.22-22.6Q231.32-22.6 230.15-21.28 228.97-19.95 228.97-17.8L228.97-17.8 228.97-7.5Q228.97-5.35 230.15-4.03 231.32-2.7 233.22-2.7L233.22-2.7Q235.12-2.7 236.35-3.93 237.57-5.15 237.57-6.8L237.57-6.8 237.57-7.15Q237.57-7.65 238.07-7.65L238.07-7.65 240.62-7.6Q241.12-7.6 241.12-7.1L241.12-7.1 241.12-6.55Q241.12-3.55 238.95-1.58 236.77 0.4 233.22 0.4L233.22 0.4ZM261.17-11.8Q261.17-11.3 260.67-11.3L260.67-11.3 249.27-11.3Q249.07-11.3 249.07-11.1L249.07-11.1 249.07-7.45Q249.07-5.35 250.24-4.03 251.42-2.7 253.32-2.7L253.32-2.7Q254.92-2.7 256.04-3.68 257.17-4.65 257.52-6.2L257.52-6.2Q257.67-6.65 258.07-6.65L258.07-6.65 260.57-6.55Q260.77-6.55 260.92-6.4 261.07-6.25 261.02-6L261.02-6Q260.62-3.05 258.59-1.33 256.57 0.4 253.32 0.4L253.32 0.4Q249.77 0.4 247.64-1.7 245.52-3.8 245.52-7.25L245.52-7.25 245.52-18.05Q245.52-21.45 247.64-23.58 249.77-25.7 253.32-25.7L253.32-25.7Q256.92-25.7 259.04-23.58 261.17-21.45 261.17-18.05L261.17-18.05 261.17-11.8ZM253.32-22.6Q251.42-22.6 250.24-21.28 249.07-19.95 249.07-17.8L249.07-17.8 249.07-14.45Q249.07-14.25 249.27-14.25L249.27-14.25 257.47-14.25Q257.67-14.25 257.67-14.45L257.67-14.45 257.67-17.8Q257.67-19.95 256.47-21.28 255.27-22.6 253.32-22.6L253.32-22.6ZM274.97-25.55Q276.22-25.55 277.12-25L277.12-25Q277.47-24.8 277.37-24.35L277.37-24.35 276.77-21.75Q276.72-21.3 276.17-21.45L276.17-21.45Q275.57-21.75 274.67-21.75L274.67-21.75Q274.27-21.75 274.07-21.7L274.07-21.7Q272.27-21.6 271.12-19.83 269.97-18.05 269.97-15.5L269.97-15.5 269.97-0.5Q269.97 0 269.47 0L269.47 0 266.92 0Q266.42 0 266.42-0.5L266.42-0.5 266.42-24.8Q266.42-25.3 266.92-25.3L266.92-25.3 269.47-25.3Q269.97-25.3 269.97-24.8L269.97-24.8 269.97-21.8Q269.97-21.65 270.04-21.65 270.12-21.65 270.22-21.75L270.22-21.75Q271.67-25.55 274.97-25.55L274.97-25.55Z" opacity="1" transform="matrix(1,0,0,1,0,0)" fill="#0994cf" class="wordmark-text-0" data-fill-palette-color="primary" id="text-0"></path></svg></g></svg></g><g transform="matrix(1,0,0,1,0,36.294832858474535)"><svg viewBox="0 0 192 12.623266017162399" height="12.623266017162399" width="192"><g transform="matrix(1,0,0,1,0,0)"><svg width="192" viewBox="2 -36.25 774.86 50.95" height="12.623266017162399" data-palette-color="#09c177"><path d="M9.25 0L2 0.15 2-1.1 3-1.2Q4.75-1.4 5.68-1.73 6.6-2.05 6.95-3.13 7.3-4.2 7.3-6.65L7.3-6.65 7.3-28.85Q7.3-31.35 6.95-32.4 6.6-33.45 5.68-33.77 4.75-34.1 3-34.3L3-34.3 2-34.4 2-35.65 9.4-35.5 16.2-35.5Q19.2-35.5 21.8-35.13 24.4-34.75 26.35-33.73 28.3-32.7 29.4-30.75 30.5-28.8 30.5-25.7L30.5-25.7Q30.5-21.25 27.15-18.5 23.8-15.75 17.4-15.75L17.4-15.75 11.55-15.75 11.55-6.65Q11.55-4.2 11.98-3.13 12.4-2.05 13.5-1.73 14.6-1.4 16.6-1.2L16.6-1.2 17.7-1.1 17.7 0.15 9.25 0ZM18.15-34.1L18.15-34.1 11.55-34.1 11.55-17.25 17.4-17.25Q20.85-17.25 22.65-18.25 24.45-19.25 25.1-21.15 25.75-23.05 25.75-25.7L25.75-25.7Q25.75-28.55 25.03-30.23 24.3-31.9 23.13-32.75 21.95-33.6 20.63-33.85 19.3-34.1 18.15-34.1ZM38.65 0L32.5 0.15 32.5-1 33.3-1.1Q34.75-1.3 35.52-1.58 36.3-1.85 36.6-2.83 36.9-3.8 36.9-6.05L36.9-6.05 36.9-30.45Q36.9-33.05 35.82-33.77 34.75-34.5 32.85-34.5L32.85-34.5 32.5-34.5 32.5-35.65Q34.55-35.65 36.45-35.77 38.35-35.9 40.4-36.25L40.4-36.25 40.4-6.05Q40.4-3.8 40.7-2.83 41-1.85 41.77-1.58 42.55-1.3 44-1.1L44-1.1 44.8-1 44.8 0.15 38.65 0ZM53.59 0.55L53.59 0.55Q51.2 0.55 49.62-0.68 48.05-1.9 48.05-4.1L48.05-4.1Q48.05-6.3 50-8.03 51.95-9.75 54.55-11.15L54.55-11.15Q56.5-12.25 58.45-13.05 60.4-13.85 61.8-14.4L61.8-14.4 61.8-16Q61.8-18.75 60.77-20.1 59.75-21.45 56.9-21.45L56.9-21.45Q55.55-21.45 54.25-21.1 52.95-20.75 52.95-19.8L52.95-19.8Q52.95-19.6 53.02-19.35 53.09-19.1 53.15-18.85L53.15-18.85Q53.4-18.2 53.4-17.5L53.4-17.5Q53.4-16.55 52.72-16.03 52.05-15.5 51.09-15.5L51.09-15.5Q50.2-15.5 49.59-16.18 49-16.85 49-17.8L49-17.8Q49-19.6 50.37-20.68 51.75-21.75 53.75-22.23 55.75-22.7 57.59-22.7L57.59-22.7Q61.59-22.7 63.45-20.85 65.3-19 65.3-14.8L65.3-14.8 65.3-5.8Q65.3-3.6 65.62-2.4 65.95-1.2 67.09-1.2L67.09-1.2Q67.84-1.2 68.4-1.75 68.95-2.3 69.15-2.95L69.15-2.95 70.05-2.6Q69.65-1.15 68.62-0.3 67.59 0.55 65.8 0.55L65.8 0.55Q63.59 0.55 62.77-0.73 61.95-2 61.84-4.1L61.84-4.1Q60.45-1.85 58.3-0.65 56.15 0.55 53.59 0.55ZM51.95-4.35L51.95-4.35Q51.95-2.95 52.77-2.13 53.59-1.3 55.2-1.3L55.2-1.3Q56.65-1.3 57.97-2 59.3-2.7 60.3-3.78 61.3-4.85 61.8-6.1L61.8-6.1 61.8-13.4Q60.15-12.7 58.42-11.78 56.7-10.85 55.22-9.7 53.75-8.55 52.84-7.23 51.95-5.9 51.95-4.35ZM77.59 0L71.44 0.15 71.44-1 72.24-1.1Q73.69-1.3 74.47-1.58 75.24-1.85 75.54-2.83 75.84-3.8 75.84-6.05L75.84-6.05 75.84-16.6Q75.84-19.2 74.77-19.93 73.69-20.65 71.79-20.65L71.79-20.65 71.44-20.65 71.44-21.8Q73.49-21.8 75.39-21.93 77.29-22.05 79.34-22.4L79.34-22.4 79.34-18.35Q80.49-20.05 82.59-21.38 84.69-22.7 87.49-22.7L87.49-22.7Q90.89-22.7 92.87-20.98 94.84-19.25 94.84-16.05L94.84-16.05 94.84-6.05Q94.84-3.8 95.14-2.83 95.44-1.85 96.22-1.58 96.99-1.3 98.44-1.1L98.44-1.1 99.24-1 99.24 0.15 93.09 0 86.94 0.15 86.94-1 87.74-1.1Q89.19-1.3 89.97-1.58 90.74-1.85 91.04-2.83 91.34-3.8 91.34-6.05L91.34-6.05 91.34-16.05Q91.34-18.55 90.04-19.88 88.74-21.2 86.39-21.2L86.39-21.2Q84.59-21.2 83.14-20.38 81.69-19.55 80.74-18.35 79.79-17.15 79.34-16.05L79.34-16.05 79.34-6.05Q79.34-3.8 79.64-2.83 79.94-1.85 80.72-1.58 81.49-1.3 82.94-1.1L82.94-1.1 83.74-1 83.74 0.15 77.59 0ZM114.89 14.7L114.89 14.7Q113.19 14.7 112.34 13.88 111.49 13.05 111.49 12.05L111.49 12.05Q111.49 11.05 112.21 10.38 112.94 9.7 114.04 9.7L114.04 9.7Q114.74 9.7 115.14 9.93 115.54 10.15 115.89 10.4L115.89 10.4Q116.24 10.65 116.69 10.93 117.14 11.2 117.74 11.2L117.74 11.2Q118.64 11.2 119.61 10.5 120.59 9.8 121.64 7.6L121.64 7.6 124.94 0.5 116.64-17.7Q116.14-18.85 115.54-19.6 114.94-20.35 113.69-20.5L113.69-20.5 112.54-20.65 112.54-21.8 117.74-21.65 122.79-21.8 122.79-20.65 122.09-20.55Q119.99-20.25 119.99-19L119.99-19Q119.99-18.4 120.54-17.2L120.54-17.2 126.79-3.5 133.04-16.95Q133.59-18.2 133.59-18.9L133.59-18.9Q133.59-20.25 131.14-20.55L131.14-20.55 130.34-20.65 130.34-21.8 135.14-21.65 139.14-21.8 139.14-20.65 138.39-20.55Q136.54-20.3 135.71-19.2 134.89-18.1 134.19-16.5L134.19-16.5 122.89 8.15Q122.09 9.85 121.01 11.35 119.94 12.85 118.46 13.78 116.99 14.7 114.89 14.7ZM151.79 0.55L151.79 0.55Q148.59 0.55 145.96-1 143.34-2.55 141.81-5.18 140.29-7.8 140.29-11L140.29-11Q140.29-14.3 141.81-16.95 143.34-19.6 145.96-21.15 148.59-22.7 151.79-22.7L151.79-22.7Q155.04-22.7 157.64-21.15 160.24-19.6 161.76-16.95 163.29-14.3 163.29-11L163.29-11Q163.29-7.8 161.76-5.18 160.24-2.55 157.64-1 155.04 0.55 151.79 0.55ZM151.79-0.7L151.79-0.7Q154.49-0.7 156.14-2.08 157.79-3.45 158.54-5.78 159.29-8.1 159.29-11L159.29-11Q159.29-14 158.54-16.35 157.79-18.7 156.14-20.08 154.49-21.45 151.79-21.45L151.79-21.45Q149.09-21.45 147.44-20.08 145.79-18.7 145.04-16.35 144.29-14 144.29-11L144.29-11Q144.29-8.1 145.04-5.78 145.79-3.45 147.44-2.08 149.09-0.7 151.79-0.7ZM177.43 0.55L177.43 0.55Q174.18 0.55 172.31-1.07 170.43-2.7 170.43-5.9L170.43-5.9 170.43-15.6Q170.43-17.85 170.13-18.82 169.83-19.8 169.06-20.1 168.28-20.4 166.83-20.55L166.83-20.55 166.03-20.65 166.03-21.8 172.18-21.65 173.93-21.7 173.93-6.1Q173.93-3.65 175.18-2.35 176.43-1.05 178.58-1.05L178.58-1.05Q180.43-1.05 181.86-1.88 183.28-2.7 184.31-4 185.33-5.3 185.93-6.65L185.93-6.65 185.93-15.6Q185.93-17.85 185.63-18.82 185.33-19.8 184.56-20.1 183.78-20.4 182.33-20.55L182.33-20.55 181.53-20.65 181.53-21.8 187.68-21.65 189.43-21.7 189.43-5.55Q189.43-3.65 189.91-2.73 190.38-1.8 191.31-1.5 192.23-1.2 193.58-1.2L193.58-1.2 193.58-0.05Q191.53-0.05 189.83 0 188.13 0.05 185.93 0.45L185.93 0.45 185.93-4.15Q185.43-3.35 184.88-2.75L184.88-2.75Q183.58-1.3 181.73-0.38 179.88 0.55 177.43 0.55ZM201.63 0L195.48 0.15 195.48-1 196.28-1.1Q197.73-1.3 198.51-1.58 199.28-1.85 199.58-2.83 199.88-3.8 199.88-6.05L199.88-6.05 199.88-16.45Q199.88-18.4 199.36-19.3 198.83-20.2 197.83-20.43 196.83-20.65 195.48-20.65L195.48-20.65 195.48-21.8Q197.53-21.8 199.43-21.95 201.33-22.1 203.38-22.4L203.38-22.4 202.83-16.65 203.03-16.65Q204.13-20 205.73-21.35 207.33-22.7 209.18-22.7L209.18-22.7Q211.28-22.7 211.98-21.68 212.68-20.65 212.68-19.7L212.68-19.7Q212.68-18.6 212.03-17.9 211.38-17.2 210.28-17.2L210.28-17.2Q209.23-17.2 208.68-17.7 208.13-18.2 208.13-18.85L208.13-18.85Q208.13-19.35 208.26-19.8 208.38-20.25 208.38-20.5L208.38-20.5Q208.38-21 207.68-21L207.68-21Q206.98-21 206.21-20.35 205.43-19.7 204.88-18.55L204.88-18.55Q204.43-17.6 204.03-16.45 203.63-15.3 203.38-13.95L203.38-13.95 203.38-6.05Q203.38-3.8 203.68-2.83 203.98-1.85 204.76-1.58 205.53-1.3 206.98-1.1L206.98-1.1 207.78-1 207.78 0.15 201.63 0ZM237.48 0.55L237.48 0.55Q235.58 0.55 234.25 0.13 232.93-0.3 232.18-0.65L232.18-0.65Q231.38-1.05 231.18-1.05L231.18-1.05Q230.98-1.05 230.85-0.88 230.73-0.7 230.58 0L230.58 0 229.43 0 229.63-3.3 229.78-7.55 230.88-7.55 230.93-6.7Q231.03-5.3 231.85-3.9 232.68-2.5 234.13-1.55 235.58-0.6 237.48-0.6L237.48-0.6Q239.53-0.6 240.78-1.65 242.03-2.7 242.03-4.55L242.03-4.55Q242.03-6.15 240.75-7.25 239.48-8.35 237.23-9.2L237.23-9.2 235.43-9.9Q232.83-10.9 231.5-12.4 230.18-13.9 230.18-16.25L230.18-16.25Q230.18-18.25 231.1-19.68 232.03-21.1 233.55-21.9 235.08-22.7 236.83-22.7L236.83-22.7Q238.08-22.7 238.95-22.4 239.83-22.1 240.43-21.8L240.43-21.8Q240.93-21.55 241.28-21.55L241.28-21.55Q241.78-21.55 242.08-22.6L242.08-22.6 243.18-22.55 242.98-19.3 242.98-15.8 241.83-15.8Q241.48-18.15 240.23-19.88 238.98-21.6 236.63-21.6L236.63-21.6Q234.98-21.6 233.85-20.55 232.73-19.5 232.73-17.9L232.73-17.9Q232.73-16.35 233.9-15.33 235.08-14.3 237.13-13.5L237.13-13.5 239.08-12.75Q242.13-11.6 243.3-9.98 244.48-8.35 244.48-6.1L244.48-6.1Q244.48-3.45 242.68-1.45 240.88 0.55 237.48 0.55ZM254.07 0.55L254.07 0.55Q251.67 0.55 250.1-0.68 248.52-1.9 248.52-4.1L248.52-4.1Q248.52-6.3 250.47-8.03 252.42-9.75 255.02-11.15L255.02-11.15Q256.97-12.25 258.92-13.05 260.87-13.85 262.27-14.4L262.27-14.4 262.27-16Q262.27-18.75 261.25-20.1 260.22-21.45 257.37-21.45L257.37-21.45Q256.02-21.45 254.72-21.1 253.42-20.75 253.42-19.8L253.42-19.8Q253.42-19.6 253.5-19.35 253.57-19.1 253.62-18.85L253.62-18.85Q253.87-18.2 253.87-17.5L253.87-17.5Q253.87-16.55 253.2-16.03 252.52-15.5 251.57-15.5L251.57-15.5Q250.67-15.5 250.07-16.18 249.47-16.85 249.47-17.8L249.47-17.8Q249.47-19.6 250.85-20.68 252.22-21.75 254.22-22.23 256.22-22.7 258.07-22.7L258.07-22.7Q262.07-22.7 263.92-20.85 265.77-19 265.77-14.8L265.77-14.8 265.77-5.8Q265.77-3.6 266.1-2.4 266.42-1.2 267.57-1.2L267.57-1.2Q268.32-1.2 268.87-1.75 269.42-2.3 269.62-2.95L269.62-2.95 270.52-2.6Q270.12-1.15 269.1-0.3 268.07 0.55 266.27 0.55L266.27 0.55Q264.07 0.55 263.25-0.73 262.42-2 262.32-4.1L262.32-4.1Q260.92-1.85 258.77-0.65 256.62 0.55 254.07 0.55ZM252.42-4.35L252.42-4.35Q252.42-2.95 253.25-2.13 254.07-1.3 255.67-1.3L255.67-1.3Q257.12-1.3 258.45-2 259.77-2.7 260.77-3.78 261.77-4.85 262.27-6.1L262.27-6.1 262.27-13.4Q260.62-12.7 258.9-11.78 257.17-10.85 255.7-9.7 254.22-8.55 253.32-7.23 252.42-5.9 252.42-4.35ZM277.42 0L271.27 0.15 271.27-1 272.07-1.1Q273.52-1.3 274.3-1.58 275.07-1.85 275.37-2.83 275.67-3.8 275.67-6.05L275.67-6.05 275.67-30.45Q275.67-33.05 274.6-33.77 273.52-34.5 271.62-34.5L271.62-34.5 271.27-34.5 271.27-35.65Q273.32-35.65 275.22-35.77 277.12-35.9 279.17-36.25L279.17-36.25 279.17-6.05Q279.17-3.8 279.47-2.83 279.77-1.85 280.55-1.58 281.32-1.3 282.77-1.1L282.77-1.1 283.57-1 283.57 0.15 277.42 0ZM292.37 0.55L292.37 0.55Q289.97 0.55 288.39-0.68 286.82-1.9 286.82-4.1L286.82-4.1Q286.82-6.3 288.77-8.03 290.72-9.75 293.32-11.15L293.32-11.15Q295.27-12.25 297.22-13.05 299.17-13.85 300.57-14.4L300.57-14.4 300.57-16Q300.57-18.75 299.54-20.1 298.52-21.45 295.67-21.45L295.67-21.45Q294.32-21.45 293.02-21.1 291.72-20.75 291.72-19.8L291.72-19.8Q291.72-19.6 291.79-19.35 291.87-19.1 291.92-18.85L291.92-18.85Q292.17-18.2 292.17-17.5L292.17-17.5Q292.17-16.55 291.49-16.03 290.82-15.5 289.87-15.5L289.87-15.5Q288.97-15.5 288.37-16.18 287.77-16.85 287.77-17.8L287.77-17.8Q287.77-19.6 289.14-20.68 290.52-21.75 292.52-22.23 294.52-22.7 296.37-22.7L296.37-22.7Q300.37-22.7 302.22-20.85 304.07-19 304.07-14.8L304.07-14.8 304.07-5.8Q304.07-3.6 304.39-2.4 304.72-1.2 305.87-1.2L305.87-1.2Q306.62-1.2 307.17-1.75 307.72-2.3 307.92-2.95L307.92-2.95 308.82-2.6Q308.42-1.15 307.39-0.3 306.37 0.55 304.57 0.55L304.57 0.55Q302.37 0.55 301.54-0.73 300.72-2 300.62-4.1L300.62-4.1Q299.22-1.85 297.07-0.65 294.92 0.55 292.37 0.55ZM290.72-4.35L290.72-4.35Q290.72-2.95 291.54-2.13 292.37-1.3 293.97-1.3L293.97-1.3Q295.42-1.3 296.74-2 298.07-2.7 299.07-3.78 300.07-4.85 300.57-6.1L300.57-6.1 300.57-13.4Q298.92-12.7 297.19-11.78 295.47-10.85 293.99-9.7 292.52-8.55 291.62-7.23 290.72-5.9 290.72-4.35ZM316.37 0L310.22 0.15 310.22-1 311.02-1.1Q312.47-1.3 313.24-1.58 314.02-1.85 314.32-2.83 314.62-3.8 314.62-6.05L314.62-6.05 314.62-16.45Q314.62-18.4 314.09-19.3 313.57-20.2 312.57-20.43 311.57-20.65 310.22-20.65L310.22-20.65 310.22-21.8Q312.27-21.8 314.17-21.95 316.07-22.1 318.12-22.4L318.12-22.4 317.57-16.65 317.77-16.65Q318.87-20 320.47-21.35 322.07-22.7 323.92-22.7L323.92-22.7Q326.02-22.7 326.72-21.68 327.42-20.65 327.42-19.7L327.42-19.7Q327.42-18.6 326.77-17.9 326.12-17.2 325.02-17.2L325.02-17.2Q323.97-17.2 323.42-17.7 322.87-18.2 322.87-18.85L322.87-18.85Q322.87-19.35 322.99-19.8 323.12-20.25 323.12-20.5L323.12-20.5Q323.12-21 322.42-21L322.42-21Q321.72-21 320.94-20.35 320.17-19.7 319.62-18.55L319.62-18.55Q319.17-17.6 318.77-16.45 318.37-15.3 318.12-13.95L318.12-13.95 318.12-6.05Q318.12-3.8 318.42-2.83 318.72-1.85 319.49-1.58 320.27-1.3 321.72-1.1L321.72-1.1 322.52-1 322.52 0.15 316.37 0ZM332.31 14.7L332.31 14.7Q330.61 14.7 329.76 13.88 328.91 13.05 328.91 12.05L328.91 12.05Q328.91 11.05 329.64 10.38 330.36 9.7 331.46 9.7L331.46 9.7Q332.16 9.7 332.56 9.93 332.96 10.15 333.31 10.4L333.31 10.4Q333.66 10.65 334.11 10.93 334.56 11.2 335.16 11.2L335.16 11.2Q336.06 11.2 337.04 10.5 338.01 9.8 339.06 7.6L339.06 7.6 342.36 0.5 334.06-17.7Q333.56-18.85 332.96-19.6 332.36-20.35 331.11-20.5L331.11-20.5 329.96-20.65 329.96-21.8 335.16-21.65 340.21-21.8 340.21-20.65 339.51-20.55Q337.41-20.25 337.41-19L337.41-19Q337.41-18.4 337.96-17.2L337.96-17.2 344.21-3.5 350.46-16.95Q351.01-18.2 351.01-18.9L351.01-18.9Q351.01-20.25 348.56-20.55L348.56-20.55 347.76-20.65 347.76-21.8 352.56-21.65 356.56-21.8 356.56-20.65 355.81-20.55Q353.96-20.3 353.14-19.2 352.31-18.1 351.61-16.5L351.61-16.5 340.31 8.15Q339.51 9.85 338.44 11.35 337.36 12.85 335.89 13.78 334.41 14.7 332.31 14.7ZM375.31 0.55L375.31 0.55Q372.91 0.55 371.33-0.68 369.76-1.9 369.76-4.1L369.76-4.1Q369.76-6.3 371.71-8.03 373.66-9.75 376.26-11.15L376.26-11.15Q378.21-12.25 380.16-13.05 382.11-13.85 383.51-14.4L383.51-14.4 383.51-16Q383.51-18.75 382.48-20.1 381.46-21.45 378.61-21.45L378.61-21.45Q377.26-21.45 375.96-21.1 374.66-20.75 374.66-19.8L374.66-19.8Q374.66-19.6 374.73-19.35 374.81-19.1 374.86-18.85L374.86-18.85Q375.11-18.2 375.11-17.5L375.11-17.5Q375.11-16.55 374.43-16.03 373.76-15.5 372.81-15.5L372.81-15.5Q371.91-15.5 371.31-16.18 370.71-16.85 370.71-17.8L370.71-17.8Q370.71-19.6 372.08-20.68 373.46-21.75 375.46-22.23 377.46-22.7 379.31-22.7L379.31-22.7Q383.31-22.7 385.16-20.85 387.01-19 387.01-14.8L387.01-14.8 387.01-5.8Q387.01-3.6 387.33-2.4 387.66-1.2 388.81-1.2L388.81-1.2Q389.56-1.2 390.11-1.75 390.66-2.3 390.86-2.95L390.86-2.95 391.76-2.6Q391.36-1.15 390.33-0.3 389.31 0.55 387.51 0.55L387.51 0.55Q385.31 0.55 384.48-0.73 383.66-2 383.56-4.1L383.56-4.1Q382.16-1.85 380.01-0.65 377.86 0.55 375.31 0.55ZM373.66-4.35L373.66-4.35Q373.66-2.95 374.48-2.13 375.31-1.3 376.91-1.3L376.91-1.3Q378.36-1.3 379.68-2 381.01-2.7 382.01-3.78 383.01-4.85 383.51-6.1L383.51-6.1 383.51-13.4Q381.86-12.7 380.13-11.78 378.41-10.85 376.93-9.7 375.46-8.55 374.56-7.23 373.66-5.9 373.66-4.35ZM405.06 0.55L405.06 0.55Q401.71 0.55 399.21-0.9 396.71-2.35 395.36-4.85 394.01-7.35 394.01-10.55L394.01-10.55Q394.01-14.05 395.56-16.8 397.11-19.55 399.76-21.13 402.41-22.7 405.76-22.7L405.76-22.7Q407.36-22.7 409.06-22.2 410.76-21.7 411.93-20.7 413.11-19.7 413.11-18.25L413.11-18.25Q413.11-17.15 412.41-16.43 411.71-15.7 410.71-15.7L410.71-15.7Q409.41-15.7 408.76-16.45 408.11-17.2 408.11-17.95L408.11-17.95Q408.11-18.35 408.18-18.65 408.26-18.95 408.31-19.2L408.31-19.2Q408.41-19.45 408.46-19.73 408.51-20 408.51-20.3L408.51-20.3Q408.51-21 407.48-21.23 406.46-21.45 405.71-21.45L405.71-21.45Q402.21-21.45 400.11-18.53 398.01-15.6 398.01-10.8L398.01-10.8Q398.01-8.15 398.91-5.9 399.81-3.65 401.53-2.3 403.26-0.95 405.81-0.95L405.81-0.95Q407.91-0.95 409.81-2.13 411.71-3.3 412.56-6.15L412.56-6.15 413.76-5.75Q412.81-2.3 410.36-0.88 407.91 0.55 405.06 0.55ZM428.55 0.55L428.55 0.55Q425.2 0.55 422.7-0.9 420.2-2.35 418.85-4.85 417.5-7.35 417.5-10.55L417.5-10.55Q417.5-14.05 419.05-16.8 420.6-19.55 423.25-21.13 425.9-22.7 429.25-22.7L429.25-22.7Q430.85-22.7 432.55-22.2 434.25-21.7 435.43-20.7 436.6-19.7 436.6-18.25L436.6-18.25Q436.6-17.15 435.9-16.43 435.2-15.7 434.2-15.7L434.2-15.7Q432.9-15.7 432.25-16.45 431.6-17.2 431.6-17.95L431.6-17.95Q431.6-18.35 431.68-18.65 431.75-18.95 431.8-19.2L431.8-19.2Q431.9-19.45 431.95-19.73 432-20 432-20.3L432-20.3Q432-21 430.98-21.23 429.95-21.45 429.2-21.45L429.2-21.45Q425.7-21.45 423.6-18.53 421.5-15.6 421.5-10.8L421.5-10.8Q421.5-8.15 422.4-5.9 423.3-3.65 425.03-2.3 426.75-0.95 429.3-0.95L429.3-0.95Q431.4-0.95 433.3-2.13 435.2-3.3 436.05-6.15L436.05-6.15 437.25-5.75Q436.3-2.3 433.85-0.88 431.4 0.55 428.55 0.55ZM452.5 0.55L452.5 0.55Q449.3 0.55 446.68-1 444.05-2.55 442.53-5.18 441-7.8 441-11L441-11Q441-14.3 442.53-16.95 444.05-19.6 446.68-21.15 449.3-22.7 452.5-22.7L452.5-22.7Q455.75-22.7 458.35-21.15 460.95-19.6 462.48-16.95 464-14.3 464-11L464-11Q464-7.8 462.48-5.18 460.95-2.55 458.35-1 455.75 0.55 452.5 0.55ZM452.5-0.7L452.5-0.7Q455.2-0.7 456.85-2.08 458.5-3.45 459.25-5.78 460-8.1 460-11L460-11Q460-14 459.25-16.35 458.5-18.7 456.85-20.08 455.2-21.45 452.5-21.45L452.5-21.45Q449.8-21.45 448.15-20.08 446.5-18.7 445.75-16.35 445-14 445-11L445-11Q445-8.1 445.75-5.78 446.5-3.45 448.15-2.08 449.8-0.7 452.5-0.7ZM473.8 0L467.65 0.15 467.65-1 468.45-1.1Q469.9-1.3 470.67-1.58 471.45-1.85 471.75-2.83 472.05-3.8 472.05-6.05L472.05-6.05 472.05-16.45Q472.05-18.4 471.52-19.3 471-20.2 470-20.43 469-20.65 467.65-20.65L467.65-20.65 467.65-21.8Q469.7-21.8 471.6-21.95 473.5-22.1 475.55-22.4L475.55-22.4 475-16.65 475.2-16.65Q476.3-20 477.9-21.35 479.5-22.7 481.35-22.7L481.35-22.7Q483.45-22.7 484.15-21.68 484.85-20.65 484.85-19.7L484.85-19.7Q484.85-18.6 484.2-17.9 483.55-17.2 482.45-17.2L482.45-17.2Q481.4-17.2 480.85-17.7 480.3-18.2 480.3-18.85L480.3-18.85Q480.3-19.35 480.42-19.8 480.55-20.25 480.55-20.5L480.55-20.5Q480.55-21 479.85-21L479.85-21Q479.15-21 478.37-20.35 477.6-19.7 477.05-18.55L477.05-18.55Q476.6-17.6 476.2-16.45 475.8-15.3 475.55-13.95L475.55-13.95 475.55-6.05Q475.55-3.8 475.85-2.83 476.15-1.85 476.92-1.58 477.7-1.3 479.15-1.1L479.15-1.1 479.95-1 479.95 0.15 473.8 0ZM497.75 0.55L497.75 0.55Q494.9 0.55 492.6-1 490.3-2.55 488.95-5.23 487.6-7.9 487.6-11.15L487.6-11.15Q487.6-14.4 488.95-17 490.3-19.6 492.65-21.15 495-22.7 497.95-22.7L497.95-22.7Q500.05-22.7 501.8-21.83 503.55-20.95 504.7-19.85L504.7-19.85 504.7-30.45Q504.7-33.05 503.62-33.77 502.55-34.5 500.65-34.5L500.65-34.5 500.3-34.5 500.3-35.65Q502.35-35.65 504.25-35.77 506.15-35.9 508.2-36.25L508.2-36.25 508.2-5.45Q508.2-2.65 509.27-1.9 510.35-1.15 512.35-1.15L512.35-1.15 512.35 0 510.3 0Q509.2 0 508.15 0.08 507.1 0.15 505.8 0.4L505.8 0.4 505.15-3.1Q503.8-1.5 501.92-0.48 500.05 0.55 497.75 0.55ZM491.6-11.15L491.6-11.15Q491.6-8.25 492.32-5.95 493.05-3.65 494.52-2.3 496-0.95 498.25-0.95L498.25-0.95Q500.4-0.95 501.97-1.93 503.55-2.9 504.7-4.3L504.7-4.3 504.7-17.8Q503.85-19.1 502.15-20.15 500.45-21.2 498.4-21.2L498.4-21.2Q496.1-21.2 494.6-19.88 493.1-18.55 492.35-16.28 491.6-14 491.6-11.15ZM520.14 0L513.99 0.15 513.99-1 514.79-1.1Q516.24-1.3 517.02-1.58 517.79-1.85 518.09-2.83 518.39-3.8 518.39-6.05L518.39-6.05 518.39-16.6Q518.39-19.2 517.32-19.93 516.24-20.65 514.34-20.65L514.34-20.65 513.99-20.65 513.99-21.8Q516.04-21.8 517.94-21.93 519.84-22.05 521.89-22.4L521.89-22.4 521.89-6.05Q521.89-3.8 522.19-2.83 522.49-1.85 523.27-1.58 524.04-1.3 525.49-1.1L525.49-1.1 526.29-1 526.29 0.15 520.14 0ZM519.54-28.25L519.54-28.25Q518.24-28.25 517.49-29.15 516.74-30.05 516.74-31.3L516.74-31.3Q516.74-32.6 517.49-33.48 518.24-34.35 519.54-34.35L519.54-34.35Q520.99-34.35 521.67-33.48 522.34-32.6 522.34-31.3L522.34-31.3Q522.34-30.05 521.67-29.15 520.99-28.25 519.54-28.25ZM534.34 0L528.19 0.15 528.19-1 528.99-1.1Q530.44-1.3 531.21-1.58 531.99-1.85 532.29-2.83 532.59-3.8 532.59-6.05L532.59-6.05 532.59-16.6Q532.59-19.2 531.51-19.93 530.44-20.65 528.54-20.65L528.54-20.65 528.19-20.65 528.19-21.8Q530.24-21.8 532.14-21.93 534.04-22.05 536.09-22.4L536.09-22.4 536.09-18.35Q537.24-20.05 539.34-21.38 541.44-22.7 544.24-22.7L544.24-22.7Q547.64-22.7 549.62-20.98 551.59-19.25 551.59-16.05L551.59-16.05 551.59-6.05Q551.59-3.8 551.89-2.83 552.19-1.85 552.96-1.58 553.74-1.3 555.19-1.1L555.19-1.1 555.99-1 555.99 0.15 549.84 0 543.69 0.15 543.69-1 544.49-1.1Q545.94-1.3 546.71-1.58 547.49-1.85 547.79-2.83 548.09-3.8 548.09-6.05L548.09-6.05 548.09-16.05Q548.09-18.55 546.79-19.88 545.49-21.2 543.14-21.2L543.14-21.2Q541.34-21.2 539.89-20.38 538.44-19.55 537.49-18.35 536.54-17.15 536.09-16.05L536.09-16.05 536.09-6.05Q536.09-3.8 536.39-2.83 536.69-1.85 537.46-1.58 538.24-1.3 539.69-1.1L539.69-1.1 540.49-1 540.49 0.15 534.34 0ZM569.14-6.6L569.14-6.6Q567.44-6.6 565.84-7.1L565.84-7.1Q564.49-6.8 563.31-6.08 562.14-5.35 562.14-4.15L562.14-4.15Q562.14-3.1 562.89-2.58 563.64-2.05 564.84-1.88 566.04-1.7 567.44-1.6L567.44-1.6 569.64-1.5Q572.79-1.35 575.34-0.83 577.89-0.3 579.41 1.2 580.94 2.7 580.94 5.8L580.94 5.8Q580.94 8.65 579.26 10.63 577.59 12.6 574.91 13.65 572.24 14.7 569.14 14.7L569.14 14.7Q566.04 14.7 563.26 13.85 560.49 13 558.76 11.25 557.04 9.5 557.04 6.75L557.04 6.75Q557.04 5.15 557.81 4.1 558.59 3.05 559.84 3.05L559.84 3.05Q560.69 3.05 561.29 3.53 561.89 4 561.89 4.95L561.89 4.95Q561.89 5.8 561.59 6.33 561.29 6.85 560.96 7.4 560.64 7.95 560.64 8.8L560.64 8.8Q560.64 10.5 561.81 11.53 562.99 12.55 564.91 13 566.84 13.45 569.14 13.45L569.14 13.45Q571.69 13.45 573.84 12.7 575.99 11.95 577.31 10.48 578.64 9 578.64 6.85L578.64 6.85Q578.64 4.6 576.86 3.58 575.09 2.55 571.39 2.35L571.39 2.35 566.29 2.1Q564.79 2 563.11 1.7 561.44 1.4 560.29 0.48 559.14-0.45 559.14-2.3L559.14-2.3Q559.14-4.25 560.76-5.7 562.39-7.15 564.39-7.7L564.39-7.7Q562.39-8.75 561.14-10.55 559.89-12.35 559.89-14.65L559.89-14.65Q559.89-16.95 561.11-18.75 562.34-20.55 564.44-21.63 566.54-22.7 569.14-22.7L569.14-22.7Q572.14-22.7 574.49-21.25L574.49-21.25Q575.54-22.7 577.04-23.33 578.54-23.95 580.04-23.95L580.04-23.95Q581.59-23.95 582.71-23.18 583.84-22.4 583.84-21.1L583.84-21.1Q583.84-20.05 583.16-19.48 582.49-18.9 581.69-18.9L581.69-18.9Q579.84-18.9 579.44-21L579.44-21Q579.34-21.6 579.01-22 578.69-22.4 578.04-22.4L578.04-22.4Q577.24-22.4 576.56-21.83 575.89-21.25 575.44-20.6L575.44-20.6Q576.79-19.5 577.59-17.95 578.39-16.4 578.39-14.65L578.39-14.65Q578.39-12.4 577.16-10.58 575.94-8.75 573.84-7.68 571.74-6.6 569.14-6.6ZM569.14-7.85L569.14-7.85Q572.09-7.85 573.31-9.8 574.54-11.75 574.54-14.65L574.54-14.65Q574.54-17.55 573.31-19.5 572.09-21.45 569.14-21.45L569.14-21.45Q566.24-21.45 564.99-19.5 563.74-17.55 563.74-14.65L563.74-14.65Q563.74-11.75 564.99-9.8 566.24-7.85 569.14-7.85ZM608.13 0.55L608.13 0.55Q605.68 0.55 604.16-0.93 602.63-2.4 602.63-5.75L602.63-5.75 602.63-20.55 598.93-20.55 598.93-21.8 600.28-21.9Q602.33-22.05 603.41-23.58 604.48-25.1 604.83-27.85L604.83-27.85 606.13-27.85 606.13-21.8 612.53-21.8 612.53-20.55 606.13-20.55 606.13-5.55Q606.13-1.15 609.23-1.15L609.23-1.15Q610.53-1.15 611.33-2.02 612.13-2.9 612.78-4.2L612.78-4.2 613.88-3.65Q613.58-2.9 613.16-2.27 612.73-1.65 612.33-1.2L612.33-1.2Q611.48-0.25 610.41 0.15 609.33 0.55 608.13 0.55ZM627.63 0.55L627.63 0.55Q624.43 0.55 621.8-1 619.18-2.55 617.65-5.18 616.13-7.8 616.13-11L616.13-11Q616.13-14.3 617.65-16.95 619.18-19.6 621.8-21.15 624.43-22.7 627.63-22.7L627.63-22.7Q630.88-22.7 633.48-21.15 636.08-19.6 637.6-16.95 639.13-14.3 639.13-11L639.13-11Q639.13-7.8 637.6-5.18 636.08-2.55 633.48-1 630.88 0.55 627.63 0.55ZM627.63-0.7L627.63-0.7Q630.33-0.7 631.98-2.08 633.63-3.45 634.38-5.78 635.13-8.1 635.13-11L635.13-11Q635.13-14 634.38-16.35 633.63-18.7 631.98-20.08 630.33-21.45 627.63-21.45L627.63-21.45Q624.93-21.45 623.28-20.08 621.63-18.7 620.88-16.35 620.13-14 620.13-11L620.13-11Q620.13-8.1 620.88-5.78 621.63-3.45 623.28-2.08 624.93-0.7 627.63-0.7ZM662.12 0L655.97 0.15 655.97-1 656.77-1.1Q658.22-1.3 659-1.58 659.77-1.85 660.07-2.83 660.37-3.8 660.37-6.05L660.37-6.05 660.37-16.6Q660.37-19.2 659.3-19.93 658.22-20.65 656.32-20.65L656.32-20.65 655.97-20.65 655.97-21.8Q658.02-21.8 659.92-21.93 661.82-22.05 663.87-22.4L663.87-22.4 663.87-18.35Q665.02-20.05 667.12-21.38 669.22-22.7 672.02-22.7L672.02-22.7Q675.42-22.7 677.4-20.98 679.37-19.25 679.37-16.05L679.37-16.05 679.37-6.05Q679.37-3.8 679.67-2.83 679.97-1.85 680.75-1.58 681.52-1.3 682.97-1.1L682.97-1.1 683.77-1 683.77 0.15 677.62 0 671.47 0.15 671.47-1 672.27-1.1Q673.72-1.3 674.5-1.58 675.27-1.85 675.57-2.83 675.87-3.8 675.87-6.05L675.87-6.05 675.87-16.05Q675.87-18.55 674.57-19.88 673.27-21.2 670.92-21.2L670.92-21.2Q669.12-21.2 667.67-20.38 666.22-19.55 665.27-18.35 664.32-17.15 663.87-16.05L663.87-16.05 663.87-6.05Q663.87-3.8 664.17-2.83 664.47-1.85 665.25-1.58 666.02-1.3 667.47-1.1L667.47-1.1 668.27-1 668.27 0.15 662.12 0ZM697.52 0.55L697.52 0.55Q694.22 0.55 691.77-0.88 689.32-2.3 687.95-4.83 686.57-7.35 686.57-10.6L686.57-10.6Q686.57-14.1 688.07-16.82 689.57-19.55 692.1-21.13 694.62-22.7 697.67-22.7L697.67-22.7Q701.52-22.7 703.7-20.25 705.87-17.8 705.87-13.8L705.87-13.8Q705.87-13.2 705.82-12.8 705.77-12.4 705.72-12.25L705.72-12.25 690.62-12.25Q690.57-11.55 690.57-10.85L690.57-10.85Q690.57-8.2 691.42-5.93 692.27-3.65 694-2.3 695.72-0.95 698.22-0.95L698.22-0.95Q700.57-0.95 702.4-2.27 704.22-3.6 705.22-6.2L705.22-6.2 706.42-5.75Q704.32 0.55 697.52 0.55ZM697.67-21.45L697.67-21.45Q694.57-21.45 692.85-19.25 691.12-17.05 690.72-13.4L690.72-13.4 697.07-13.4Q699.32-13.4 700.5-13.93 701.67-14.45 702.1-15.23 702.52-16 702.52-16.75L702.52-16.75Q702.52-18.95 701.02-20.2 699.52-21.45 697.67-21.45ZM721.37 0.55L721.37 0.55Q718.07 0.55 715.62-0.88 713.17-2.3 711.79-4.83 710.42-7.35 710.42-10.6L710.42-10.6Q710.42-14.1 711.92-16.82 713.42-19.55 715.94-21.13 718.47-22.7 721.52-22.7L721.52-22.7Q725.37-22.7 727.54-20.25 729.72-17.8 729.72-13.8L729.72-13.8Q729.72-13.2 729.67-12.8 729.62-12.4 729.57-12.25L729.57-12.25 714.47-12.25Q714.42-11.55 714.42-10.85L714.42-10.85Q714.42-8.2 715.27-5.93 716.12-3.65 717.84-2.3 719.57-0.95 722.07-0.95L722.07-0.95Q724.42-0.95 726.24-2.27 728.07-3.6 729.07-6.2L729.07-6.2 730.27-5.75Q728.17 0.55 721.37 0.55ZM721.52-21.45L721.52-21.45Q718.42-21.45 716.69-19.25 714.97-17.05 714.57-13.4L714.57-13.4 720.92-13.4Q723.17-13.4 724.34-13.93 725.52-14.45 725.94-15.23 726.37-16 726.37-16.75L726.37-16.75Q726.37-18.95 724.87-20.2 723.37-21.45 721.52-21.45ZM744.42 0.55L744.42 0.55Q741.57 0.55 739.27-1 736.97-2.55 735.62-5.23 734.27-7.9 734.27-11.15L734.27-11.15Q734.27-14.4 735.62-17 736.97-19.6 739.32-21.15 741.67-22.7 744.62-22.7L744.62-22.7Q746.72-22.7 748.47-21.83 750.22-20.95 751.37-19.85L751.37-19.85 751.37-30.45Q751.37-33.05 750.29-33.77 749.22-34.5 747.32-34.5L747.32-34.5 746.97-34.5 746.97-35.65Q749.02-35.65 750.92-35.77 752.82-35.9 754.87-36.25L754.87-36.25 754.87-5.45Q754.87-2.65 755.94-1.9 757.02-1.15 759.02-1.15L759.02-1.15 759.02 0 756.97 0Q755.87 0 754.82 0.08 753.77 0.15 752.47 0.4L752.47 0.4 751.82-3.1Q750.47-1.5 748.59-0.48 746.72 0.55 744.42 0.55ZM738.27-11.15L738.27-11.15Q738.27-8.25 738.99-5.95 739.72-3.65 741.19-2.3 742.67-0.95 744.92-0.95L744.92-0.95Q747.07-0.95 748.64-1.93 750.22-2.9 751.37-4.3L751.37-4.3 751.37-17.8Q750.52-19.1 748.82-20.15 747.12-21.2 745.07-21.2L745.07-21.2Q742.77-21.2 741.27-19.88 739.77-18.55 739.02-16.28 738.27-14 738.27-11.15ZM769.86 0.55L769.86 0.55Q767.96 0.55 766.64 0.13 765.31-0.3 764.56-0.65L764.56-0.65Q763.76-1.05 763.56-1.05L763.56-1.05Q763.36-1.05 763.24-0.88 763.11-0.7 762.96 0L762.96 0 761.81 0 762.01-3.3 762.16-7.55 763.26-7.55 763.31-6.7Q763.41-5.3 764.24-3.9 765.06-2.5 766.51-1.55 767.96-0.6 769.86-0.6L769.86-0.6Q771.91-0.6 773.16-1.65 774.41-2.7 774.41-4.55L774.41-4.55Q774.41-6.15 773.14-7.25 771.86-8.35 769.61-9.2L769.61-9.2 767.81-9.9Q765.21-10.9 763.89-12.4 762.56-13.9 762.56-16.25L762.56-16.25Q762.56-18.25 763.49-19.68 764.41-21.1 765.94-21.9 767.46-22.7 769.21-22.7L769.21-22.7Q770.46-22.7 771.34-22.4 772.21-22.1 772.81-21.8L772.81-21.8Q773.31-21.55 773.66-21.55L773.66-21.55Q774.16-21.55 774.46-22.6L774.46-22.6 775.56-22.55 775.36-19.3 775.36-15.8 774.21-15.8Q773.86-18.15 772.61-19.88 771.36-21.6 769.01-21.6L769.01-21.6Q767.36-21.6 766.24-20.55 765.11-19.5 765.11-17.9L765.11-17.9Q765.11-16.35 766.29-15.33 767.46-14.3 769.51-13.5L769.51-13.5 771.46-12.75Q774.51-11.6 775.69-9.98 776.86-8.35 776.86-6.1L776.86-6.1Q776.86-3.45 775.06-1.45 773.26 0.55 769.86 0.55Z" opacity="1" transform="matrix(1,0,0,1,0,0)" fill="#09c177" class="slogan-text-1" data-fill-palette-color="secondary" id="text-1"></path></svg></g></svg></g></svg></g></svg></g><g transform="matrix(1,0,0,1,58.719566718380854,0)"><svg viewBox="0 0 74.56086656323829 67.60481264613024" height="67.60481264613024" width="74.56086656323829"><g><svg xmlns="http://www.w3.org/2000/svg" xmlns:xlink="http://www.w3.org/1999/xlink" version="1.1" x="0" y="0" viewBox="0.936 3.834 62.128161751229406 56.331999999999994" enable-background="new 0 0 64 64" xml:space="preserve" height="67.60481264613024" width="74.56086656323829" class="icon-icon-0" data-fill-palette-color="accent" id="icon-0"><g fill="#d20845" data-fill-palette-color="accent"><path fill="#d20845" d="M22.937 39.804L22.473 39.847 22.446 50.645 22.901 50.704C25.425 51.012 27.212 52.576 27.648 54.825H28.683L28.655 54.687C28.211 52.268 26.52 50.524 24.014 49.891L23.46 49.75 23.495 40.771 24.062 40.643C26.608 40.066 28.203 38.413 28.674 35.862L28.712 35.652H27.685C27.238 38.109 25.643 39.507 22.937 39.804" data-fill-palette-color="accent"></path><path fill="#d20845" d="M55.531 50.758L55.97 50.694 55.998 39.931 55.553 39.873C52.733 39.512 51.542 38.473 50.807 35.651H49.785L49.844 36.004C50.591 38.824 51.874 40.16 54.404 40.701L54.983 40.825 54.96 49.819 54.415 49.96C51.86 50.623 50.383 52.169 49.766 54.825H50.801C51.384 52.456 52.862 51.187 55.531 50.758" data-fill-palette-color="accent"></path><path fill="#d20845" d="M62.002 31.518A3.64 3.64 0 0 0 59.401 30.434L19.121 30.31A3.68 3.68 0 0 0 15.437 33.983L15.384 56.366C15.384 58.398 17.028 60.052 19.047 60.052L59.33 60.166H59.351C60.328 60.166 61.247 59.785 61.938 59.092S63.011 57.479 63.011 56.502L63.064 34.118A3.63 3.63 0 0 0 62.002 31.518M17.951 56.37L18.004 33.986C18.004 33.375 18.504 32.878 19.118 32.877L59.398 33C59.694 33 59.972 33.115 60.181 33.326 60.387 33.534 60.5 33.81 60.498 34.106L60.446 56.498C60.446 56.793 60.332 57.069 60.124 57.277A1.08 1.08 0 0 1 59.353 57.598H59.342L19.053 57.484A1.11 1.11 0 0 1 17.951 56.37" data-fill-palette-color="accent"></path><path fill="#d20845" d="M38.754 39.596V37.806H39.877V39.51C40.321 39.585 40.75 39.628 41.16 39.737 41.496 39.827 41.813 39.992 42.134 40.135 42.175 40.153 42.222 40.251 42.207 40.29 42.071 40.655 41.921 41.015 41.769 41.394A3.9 3.9 0 0 0 40.37 40.879C39.781 40.782 39.19 40.735 38.611 40.935 38.028 41.136 37.639 41.53 37.54 42.146 37.443 42.755 37.629 43.293 38.161 43.629 38.605 43.91 39.085 44.143 39.568 44.352 40.195 44.622 40.817 44.893 41.376 45.292 42.382 46.009 42.805 46.993 42.638 48.202 42.477 49.364 41.786 50.143 40.721 50.595 40.422 50.722 40.1 50.796 39.765 50.901V52.741H38.566V50.965C38.15 50.905 37.75 50.864 37.357 50.787 36.847 50.687 36.366 50.502 35.916 50.238 35.808 50.174 35.786 50.114 35.831 49.996 35.958 49.661 36.071 49.322 36.197 48.963L36.471 49.112C37.247 49.527 38.073 49.765 38.955 49.729A3 3 0 0 0 39.929 49.528C41.26 48.99 41.459 47.354 40.318 46.445 39.859 46.079 39.325 45.852 38.786 45.633 38.112 45.36 37.466 45.04 36.897 44.574 35.56 43.48 35.7 41.381 37.033 40.345A3.7 3.7 0 0 1 38.513 39.657C38.586 39.637 38.659 39.619 38.754 39.596" data-fill-palette-color="accent"></path><path fill="#d20845" d="M24.86 24.883A3 3 0 0 0 24.623 24.264C24.625 23.942 24.71 23.613 24.879 23.31 25.805 21.706 25.673 21.807 26.624 20.218L26.944 19.698C27.528 18.737 28.121 17.773 28.698 16.825 28.879 16.522 28.939 16.164 28.853 15.822A1.37 1.37 0 0 0 27.204 14.843 1.28 1.28 0 0 0 26.403 15.451C25.246 17.456 23.989 19.761 22.653 21.951A2.1 2.1 0 0 1 21.923 22.653 3 3 0 0 0 21.275 22.737 2.956 2.956 0 0 0 22.716 28.47 2.96 2.96 0 0 0 24.86 24.883" data-fill-palette-color="accent"></path><path fill="#d20845" d="M22.292 3.834C10.515 3.834 0.936 13.414 0.936 25.2 0.936 33.637 5.858 40.951 12.976 44.408V41.654C7.244 38.402 3.377 32.24 3.377 25.2 3.377 14.761 11.863 6.275 22.292 6.275 32.731 6.275 41.217 14.761 41.217 25.2 41.217 26.128 41.149 27.036 41.022 27.934L43.483 27.944C43.6 27.046 43.659 26.128 43.659 25.2 43.658 13.413 34.079 3.834 22.292 3.834" data-fill-palette-color="accent"></path></g></svg></g></svg></g><g></g></svg></g></svg></g></svg></g></svg></g><defs></defs></svg><rect width="320" height="360" fill="none" stroke="none" visibility="hidden"></rect></g></svg></g></svg>